<?xml version="1.0" encoding="UTF-8"?>
<svg id="Warstwa_2" data-name="Warstwa 2" xmlns="http://www.w3.org/2000/svg" viewBox="0 0 24.53 50.52">
  <g id="Warstwa_1-2" data-name="Warstwa 1">
    <path d="m24.53,3.51h0c0,.93-.37,1.82-1.03,2.48l-14.53,14.52c-1.41,1.41-2.12,3.35-1.94,5.37.14,1.64.96,3.16,2.12,4.33l14.36,14.36c.66.66,1.03,1.55,1.03,2.48h0c-.04,3.11-3.81,4.64-6.01,2.44l-14.26-14.26C1.95,32.91.38,29.89.07,26.63c-.4-4.17,1.05-8.16,3.95-11.07L18.55,1.03c2.21-2.2,5.98-.64,5.98,2.48Z"/>
  </g>
</svg>